# xmcd
#
# Track frame offsets:
#	150
#	12213
#	26127
#	37908
#	51924
#	65442
#	78537
#	95472
#	106647
#	117789
#	129498
#	136992
#	146220
#	158454
#	170232
#
# Disc length: 2370 seconds
#
# Revision: 0
# Processed by: cddbd v1.5.2PL0 Copyright (c) Steve Scherf et al.
# Submitted via: dBpowerAMP V4.0
#
DISCID=c409400f
DTITLE=Country cd2 - série gold
DYEAR=1900
DGENRE=country
TTITLE0=Waylon Jennings - don't think twice,it's alright
TTITLE1=Johnny Paycheck - Someone to give my love to
TTITLE2=Patsy Cline - Walkin' after midnight
TTITLE3=Tex Ritter - Fools paradise
TTITLE4=Willie Nelson - The last letter
TTITLE5=Kenny Rogers - Ruby don't take your love to down
TTITLE6=Lynn Anderson - Blue bayou
TTITLE7=Sandy Posey - I will follow him
TTITLE8=Jack Greene - There goes my everything
TTITLE9=Don Gibson - give myself a party
TTITLE10=Merle Haggard - I am a lonesome fugitive
TTITLE11=Mickey Gilley - Suzie Q
TTITLE12=Porter Wagoneer - Green grass of home
TTITLE13=Jeanne Pruett - Green green grass of home
TTITLE14=Dolly Parton - Puppy love
EXTD=
EXTT0=
EXTT1=
EXTT2=
EXTT3=
EXTT4=
EXTT5=
EXTT6=
EXTT7=
EXTT8=
EXTT9=
EXTT10=
EXTT11=
EXTT12=
EXTT13=
EXTT14=
PLAYORDER=
